<svg width="461" height="241" viewBox="0 0 461 241" fill="none" xmlns="http://www.w3.org/2000/svg">
<path d="M355.051 91.8791C355.051 91.9653 355.051 92.0084 355.051 92.0084C351.086 92.0084 348.974 92.0084 348.715 92.0084C347.249 92.0084 346.042 91.7929 345.094 91.3618C342.594 90.3273 341.947 88.603 343.154 86.1891C343.327 85.8443 343.542 85.5425 343.801 85.2839C346.991 80.6285 348.327 75.1541 347.81 68.8607C347.81 68.5158 347.724 67.2658 347.551 65.1105C347.465 62.9552 347.336 61.3172 347.163 60.1965C346.646 57.1791 345.482 54.8083 343.672 53.084C343.327 52.7392 342.249 51.5322 340.439 49.4632C339.059 47.8252 337.939 45.9285 337.076 43.7732C335.525 39.5489 333.887 36.0573 332.162 33.2986C331.3 31.9192 330.697 30.1088 330.352 27.8673C329.404 22.0911 327.679 16.1856 325.179 10.1509C324.662 8.77149 324.36 7.90937 324.274 7.56453C323.498 4.89198 324.446 3.16776 327.119 2.39185C327.55 2.21943 328.024 2.13322 328.542 2.13322C331.645 1.78838 334.663 2.13322 337.594 3.16775C339.835 3.94365 341.344 5.45235 342.12 7.69384C342.723 9.15944 343.154 10.625 343.413 12.0906C343.585 12.8665 345.266 19.8496 348.456 33.0399C349.06 35.6263 350.31 38.3419 352.206 41.1869C352.465 41.6179 352.81 42.0921 353.241 42.6094C354.362 43.7301 355.612 44.3767 356.991 44.5491C358.457 44.7215 359.793 44.3336 361 43.3853C364.707 40.4541 367.293 37.5229 368.759 34.5917C369.966 32.1778 370.569 29.7639 370.569 27.35C370.569 23.6429 370.569 20.6686 370.569 18.4271C370.569 15.927 370.052 13.8148 369.018 12.0906C367.638 9.6767 365.655 8.55596 363.069 8.72838C360.569 8.98701 359.103 10.3233 358.672 12.7372C358.672 13.082 358.629 13.6424 358.543 14.4183C358.457 15.1942 358.414 15.6684 358.414 15.8408C358.327 16.9615 357.896 17.6512 357.121 17.9099C356.258 18.1685 355.439 17.953 354.664 17.2633C353.629 16.4012 352.982 15.2373 352.724 13.7717C352.379 11.7027 352.594 9.71981 353.37 7.82316C354.146 5.8403 355.526 4.46092 357.508 3.68502C359.405 2.99533 361.172 2.65049 362.81 2.65049C368.5 2.47806 372.466 2.39185 374.708 2.39185C379.191 2.47806 382.165 4.71956 383.63 9.11633C384.493 11.9613 384.622 14.7201 384.018 17.3926C383.156 21.0997 382.725 23.0825 382.725 23.3412C381.949 27.5655 379.967 31.5312 376.777 35.2383C376.518 35.497 376.044 36.0573 375.354 36.9194C374.665 37.6953 374.147 38.2988 373.802 38.7299C371.647 41.0576 368.888 45.0233 365.526 50.627C363.888 53.2996 363.069 56.317 363.069 59.6792C363.069 63.9035 363.285 69.0762 363.716 75.1972C363.716 75.8007 364.104 77.9991 364.88 81.7924C365.052 82.8269 365.526 84.0339 366.302 85.4132C366.906 86.4478 367.207 87.4823 367.207 88.5168C367.121 89.5514 366.604 90.2842 365.655 90.7152C364.88 91.0601 363.931 91.2756 362.81 91.3618C361.948 91.448 359.362 91.6204 355.051 91.8791Z" fill="currentColor"/>
<path d="M332.853 58.6435C332.939 58.7297 333.026 59.7643 333.112 61.7471C332.939 63.9024 332.81 65.0663 332.724 65.2387C332.207 68.3423 331.905 70.7993 331.819 72.6097C331.732 74.334 331.215 75.972 330.267 77.5238C329.836 78.3859 329.146 79.6359 328.198 81.274C327.249 82.8258 326.646 83.8172 326.387 84.2482C324.922 86.8346 322.68 88.5588 319.663 89.4209C315.87 90.5417 312.119 91.3176 308.412 91.7486C307.205 91.8348 305.955 91.7917 304.662 91.6193C301.645 91.2745 298.11 91.2745 294.058 91.6193C288.972 92.0504 283.971 91.9642 279.057 91.3607C278.281 91.2745 277.721 91.1882 277.376 91.102C274.79 90.3261 273.755 88.6019 274.273 85.9294C274.445 85.0673 274.704 84.2914 275.049 83.6017C275.824 82.1361 276.428 80.9291 276.859 79.9808C277.29 78.9463 277.592 77.9548 277.764 77.0065C278.023 76.0582 278.195 75.3254 278.281 74.8081C278.368 74.2909 278.454 73.4287 278.54 72.2218C278.713 71.0148 278.885 70.0234 279.057 69.2475C279.661 64.4197 279.963 60.2815 279.963 56.8331C279.876 54.9364 279.747 53.4277 279.575 52.307C279.144 49.8931 279.1 47.393 279.445 44.8066C279.963 41.703 280.006 38.2546 279.575 34.4613C279.402 32.9957 279.316 32.1336 279.316 31.8749C279.402 29.7197 279.23 25.3229 278.799 18.6846C278.454 14.8913 277.549 11.7877 276.083 9.37382C275.652 8.59792 275.307 7.90823 275.049 7.30475C274.531 5.92538 274.531 4.76153 275.049 3.8132C275.652 2.86488 276.687 2.30451 278.152 2.13209C279.445 1.95966 280.695 1.95966 281.902 2.13209C285.351 2.64935 289.273 2.64935 293.67 2.13209C296.429 1.87345 299.576 1.91656 303.11 2.2614C308.714 2.77867 313.628 5.49432 317.852 10.4084C318.283 10.8394 318.844 11.7446 319.534 13.124C320.137 14.4172 321.258 16.6587 322.896 19.8485C323.413 20.883 323.715 21.5727 323.801 21.9176C324.404 23.5556 325.611 26.2712 327.422 30.0645C328.543 32.4784 329.405 35.6251 330.008 39.5046C330.267 41.2289 330.612 43.5997 331.043 46.6171C332.077 52.9105 332.681 56.9193 332.853 58.6435ZM291.73 33.0388C291.472 35.1079 291.342 37.608 291.342 40.5392C291.601 45.1084 291.774 47.5223 291.86 47.7809C292.032 50.281 292.291 53.6002 292.636 57.7383C292.98 61.5316 293.972 66.1439 295.61 71.5752C296.213 73.4718 297.507 75.3685 299.489 77.2651C300.696 78.7307 302.722 79.4635 305.567 79.4635C308.412 79.3773 310.568 78.2997 312.033 76.2306C313.24 74.6788 314.059 73.0408 314.49 71.3166C314.49 71.3166 314.619 70.7562 314.878 69.6354C315.137 68.5147 315.352 67.6957 315.525 67.1784C316.732 63.3851 317.12 58.2556 316.689 51.7897C316.43 47.9964 316.301 45.2808 316.301 43.6428C316.387 41.6599 316.171 39.9788 315.654 38.5994C314.964 36.3579 314.447 33.9009 314.102 31.2284C313.844 29.3317 313.197 27.3489 312.162 25.2798C311.731 24.4177 311.085 23.2107 310.223 21.6589C309.447 20.0209 308.886 18.8139 308.542 18.038C307.938 17.0035 307.507 16.2707 307.248 15.8397C305.179 13.0809 302.636 12.4343 299.619 13.8999C296.774 15.1931 294.92 17.1328 294.058 19.7192C293.196 22.1331 292.679 24.1159 292.506 25.6677C292.42 26.0988 292.291 27.2195 292.118 29.03C292.032 30.7542 291.903 32.0905 291.73 33.0388Z" fill="currentColor"/>
<path d="M228.908 27.6065C228.563 31.1412 228.39 36.3139 228.39 43.1245C228.39 48.0386 228.39 50.8404 228.39 51.5301C228.39 52.8233 228.304 53.7716 228.132 54.3751C227.528 57.9098 227.787 62.2203 228.908 67.3068C229.08 68.1689 229.295 69.4621 229.554 71.1863C229.813 72.9105 229.985 73.8588 230.071 74.0312C230.416 76.2727 230.718 77.7814 230.977 78.5573C231.494 80.7988 232.485 82.6093 233.951 83.9886C234.727 84.7645 235.287 85.4542 235.632 86.0577C236.322 87.006 236.537 87.9113 236.279 88.7734C236.02 89.5493 235.33 90.1527 234.209 90.5838C233.175 91.0149 232.054 91.2735 230.847 91.3597C227.399 91.3597 223.649 91.3597 219.597 91.3597C218.476 91.3597 217.485 91.1011 216.622 90.5838C214.726 89.4631 214.209 87.9113 215.071 85.9284C215.502 84.9801 216.019 84.1611 216.622 83.4714C219.295 80.454 220.502 76.7469 220.243 72.3501C220.071 67.6085 220.502 62.91 221.536 58.2546C221.968 56.2717 222.054 54.1596 221.795 51.9181C221.278 48.4696 221.235 45.0212 221.666 41.5727C222.011 38.4691 221.838 35.0638 221.149 31.3567C220.804 29.3739 220.416 26.6151 219.985 23.0804C219.64 19.5458 219.381 17.2181 219.209 16.0973C218.691 12.5627 218.045 9.97634 217.269 8.33832C217.01 7.90727 216.795 7.39 216.622 6.78652C216.105 4.80366 216.752 3.38118 218.562 2.51907C219.166 2.26044 219.726 2.08801 220.243 2.0018C224.123 1.65695 227.183 1.65695 229.425 2.0018C232.615 2.60528 235.46 3.98466 237.96 6.13994C242.615 10.4505 245.374 15.2783 246.236 20.6234C246.667 23.2098 248.003 28.4255 250.245 36.2708C251.279 39.8916 251.969 42.8659 252.314 45.1936C252.831 49.5904 254.081 53.7285 256.064 57.608C256.236 57.8667 256.452 58.2977 256.711 58.9012C256.969 59.5047 257.142 59.9357 257.228 60.1944C257.573 60.884 257.874 61.4013 258.133 61.7462C258.478 62.091 258.866 62.2634 259.297 62.2634C259.814 62.2634 260.245 62.0479 260.59 61.6168C260.935 61.0996 261.107 60.5392 261.107 59.9357C261.194 58.9874 261.237 58.2115 261.237 57.608C261.237 51.056 261.107 46.8747 260.849 45.0643C260.676 43.8573 260.719 42.3055 260.978 40.4089C261.409 37.3053 261.366 34.331 260.849 31.486C260.159 28.3824 259.771 24.2012 259.685 18.9423C259.599 15.7525 258.65 12.8644 256.84 10.2781C255.978 8.98491 255.417 7.99348 255.159 7.30379C254.814 6.01062 254.9 4.93298 255.417 4.07087C255.935 3.12254 256.84 2.51907 258.133 2.26044C258.823 2.08801 259.771 2.08801 260.978 2.26044C263.306 2.51907 265.763 2.82081 268.349 3.16565C270.418 3.42429 271.754 4.02776 272.358 4.97608C272.961 5.92441 273.005 7.34689 272.487 9.24354C272.142 10.6229 271.711 11.9161 271.194 13.123C269.815 16.2267 269.039 19.9337 268.866 24.2443C268.522 30.7101 268.565 35.7104 268.996 39.245C269.082 39.7623 269.125 40.2365 269.125 40.6675C268.694 47.3058 268.435 51.4439 268.349 53.0819C268.004 57.5649 268.047 61.6599 268.478 65.367C268.737 68.4706 268.996 71.5742 269.254 74.6778C269.427 77.6952 270.03 80.6695 271.065 83.6007C271.582 85.2387 271.927 86.4457 272.099 87.2216C272.444 89.4631 271.453 90.9286 269.125 91.6183C268.78 91.7045 268.522 91.7477 268.349 91.7477C264.297 92.0063 261.107 92.0063 258.78 91.7477C256.452 91.5752 254.598 90.5407 253.219 88.6441C248.909 83.1265 246.451 77.997 245.848 73.2554C245.503 70.7552 244.77 68.2551 243.65 65.755C242.27 62.7376 241.451 59.5909 241.193 56.3148C240.848 52.7802 240.029 49.2455 238.736 45.7109C237.873 43.4694 237.27 41.3572 236.925 39.3744C236.839 38.6847 236.71 38.1243 236.537 37.6932C234.985 33.5551 233.908 29.9773 233.304 26.9599C233.132 25.9254 232.744 25.1495 232.14 24.6322C231.192 23.7701 230.373 23.8563 229.683 24.8909C229.339 25.4081 229.08 26.3134 228.908 27.6065Z" fill="currentColor"/>
<path d="M155.621 2.13203C156.742 2.04581 158.466 1.91649 160.794 1.74407C163.208 1.48544 164.932 1.35612 165.966 1.35612C167.001 1.26991 168.596 1.26991 170.751 1.35612C175.148 1.1837 179.114 1.31302 182.648 1.74407C183.597 1.83028 185.062 1.87339 187.045 1.87339C190.149 1.87339 192.606 3.12345 194.416 5.62357C197.434 9.6755 199.33 13.4257 200.106 16.8741C200.106 16.8741 201.27 21.1416 203.598 29.6765C204.374 32.6939 204.977 35.9268 205.408 39.3753C205.581 40.6684 205.968 42.134 206.572 43.772C207.089 45.2376 207.477 46.5308 207.736 47.6515C207.994 48.5999 208.425 50.3672 209.029 52.9535C209.632 55.4536 210.107 57.4365 210.451 58.9021C211.141 61.5746 211.572 65.2817 211.745 70.0233C211.831 72.9545 212.133 75.4978 212.65 77.653C213.426 80.7566 213.598 83.5154 213.167 85.9293C212.564 89.0329 210.839 90.6709 207.994 90.8433C204.287 90.9296 200.149 91.2313 195.58 91.7486C194.028 91.921 192.433 91.7917 190.795 91.3606C190.019 91.1882 189.416 90.9296 188.985 90.5847C187.95 89.8088 187.649 88.8605 188.08 87.7397C188.511 86.7052 188.985 85.8862 189.502 85.2827C192.002 82.1791 194.071 77.653 195.709 71.7045C196.399 69.463 196.528 67.1784 196.097 64.8507C195.58 62.0919 195.063 58.6003 194.545 54.376C194.028 49.3758 192.088 45.41 188.726 42.4789C186.226 40.2374 183.597 39.2459 180.838 39.5046C179.114 39.5908 177.217 39.8063 175.148 40.1512C173.855 40.3236 172.562 40.9271 171.268 41.9616C167.992 44.3755 165.191 47.2636 162.863 50.6258C161.57 52.4363 160.837 54.5915 160.664 57.0917C160.492 60.9712 160.406 63.773 160.406 65.4972C160.578 71.101 162.432 75.7133 165.966 79.3341C166.57 79.9376 167.389 80.7566 168.424 81.7912C169.544 82.8257 170.234 83.4723 170.493 83.7309C171.872 85.1103 172.691 85.9293 172.95 86.1879C173.812 87.3087 174.027 88.3863 173.596 89.4209C173.251 90.4554 172.389 91.0589 171.01 91.2313C166.441 91.8348 162.777 92.0072 160.018 91.7486C158.552 91.5761 157.044 91.4468 155.492 91.3606C154.112 91.2744 152.949 91.0589 152 90.714C149.586 89.8519 147.991 88.2139 147.216 85.8C146.698 84.162 146.569 82.4377 146.828 80.6273C147 79.679 147.216 78.1272 147.474 75.9719C147.733 73.7304 147.991 71.7907 148.25 70.1527C148.509 68.5146 148.854 66.9628 149.285 65.4972C149.285 65.411 149.371 65.0231 149.543 64.3334C149.716 63.6437 149.888 63.1264 150.061 62.7816C151.095 59.4194 151.914 55.7554 152.518 51.7897C152.604 50.9276 152.733 50.1517 152.905 49.462C154.802 42.0478 156.009 37.4355 156.526 35.6251C157.388 32.6077 157.906 30.0644 158.078 27.9954C158.251 25.6677 158.682 23.5124 159.371 21.5295C159.975 19.7191 160.19 17.8225 160.018 15.8396C159.845 14.2878 159.328 12.9515 158.466 11.8308C157.518 10.5376 156.354 9.93414 154.975 10.0203C153.681 10.1066 152.647 10.8394 151.871 12.2187C151.699 12.4774 151.483 12.8653 151.224 13.3826C151.052 13.8999 150.966 14.2447 150.966 14.4171C150.621 15.193 150.362 15.7103 150.19 15.9689C149.414 17.0035 148.466 17.1759 147.345 16.4862C145.534 15.3654 144.457 13.8567 144.112 11.9601C143.767 10.0635 144.155 8.42544 145.276 7.04606C146.31 5.7529 147.474 4.76147 148.767 4.07178C151.095 2.86482 153.38 2.21824 155.621 2.13203ZM184.459 27.3488C186.7 26.9177 187.821 25.4953 187.821 23.0813C187.821 21.9606 187.562 20.7105 187.045 19.3312C186.528 17.8656 185.924 16.7017 185.235 15.8396C184.976 15.4948 184.631 15.1499 184.2 14.8051C182.131 12.9084 179.846 12.6067 177.346 13.8998C176.226 14.5033 174.545 15.9258 172.303 18.1673C170.148 20.4088 168.639 23.6848 167.777 27.9954C167.691 28.254 167.691 28.5989 167.777 29.0299C167.863 30.5817 168.682 31.3576 170.234 31.3576C171.01 31.4438 171.743 31.3145 172.432 30.9697C173.381 30.4524 174.329 29.9782 175.277 29.5472C177.088 28.5126 179.027 27.9523 181.097 27.8661C182.304 27.7799 183.424 27.6074 184.459 27.3488Z" fill="currentColor"/>
<path d="M101.618 0.838867H109.119C112.136 0.925082 115.671 1.18372 119.723 1.61477C120.757 1.78719 122.266 1.8734 124.249 1.8734C124.852 1.95961 125.8 2.00272 127.094 2.00272C128.387 2.00272 129.378 2.00272 130.068 2.00272C131.189 2.08893 132.137 2.26136 132.913 2.51999C134.896 3.12347 135.801 4.50285 135.629 6.65813C135.629 7.00297 135.542 7.56334 135.37 8.33924C134.68 11.7877 135.241 14.9344 137.051 17.7794C138.603 20.2795 139.594 22.6503 140.025 24.8918C140.37 26.616 140.241 28.2109 139.637 29.6765C138.517 32.3491 136.577 33.8578 133.818 34.2026C133.387 34.2026 132.611 34.2026 131.49 34.2026C128.645 34.2026 126.447 34.3319 124.895 34.5906C123.861 34.763 122.697 34.7199 121.404 34.4612C118.473 34.0302 116.576 32.3922 115.714 29.5472C115.197 28.0816 115.024 26.7453 115.197 25.5384C115.369 24.2452 116.102 23.5124 117.395 23.34C117.74 23.34 118.214 23.34 118.817 23.34C119.507 23.34 120.024 23.2969 120.369 23.2107C121.576 23.2107 122.524 22.8227 123.214 22.0468C123.904 21.2709 124.162 20.2795 123.99 19.0725C123.645 15.7103 122.093 13.3395 119.335 11.9601C117.093 10.7532 114.765 10.9687 112.352 12.6067C109.679 14.5033 107.825 16.7017 106.791 19.2019C106.274 20.495 105.886 21.5727 105.627 22.4348C104.161 28.5558 103.472 33.4698 103.558 37.1769C103.644 39.7632 103.515 42.1771 103.17 44.4186C103.084 44.6773 103.084 45.9273 103.17 48.1688C103.342 50.4103 103.558 53.0397 103.817 56.0571C104.075 59.0745 104.377 61.4022 104.722 63.0402C105.067 64.592 105.627 66.0145 106.403 67.3077C108.127 70.0665 109.42 72.0924 110.282 73.3856C112.093 76.0581 114.378 77.8686 117.136 78.8169C120.498 79.8514 123.343 79.2048 125.671 76.8771C128.602 74.0322 130.025 70.7993 129.939 67.1784C129.939 66.1438 129.939 64.592 129.939 62.523C130.025 61.4022 130.283 60.4539 130.715 59.678C131.49 58.2124 132.611 57.8245 134.077 58.5142C134.422 58.7728 134.896 59.1176 135.499 59.5487C136.275 60.2384 136.965 61.2729 137.568 62.6523C139.81 67.5663 140.974 70.1958 141.06 70.5406C142.525 74.4201 143 78.5583 142.482 82.955C142.224 85.1965 141.146 87.0501 139.249 88.5157C135.37 91.4468 131.404 92.5245 127.352 91.7486C125.283 91.4037 123.171 91.4468 121.016 91.8779C117.998 92.4814 114.938 92.5245 111.834 92.0072C110.196 91.8348 106.963 91.4468 102.136 90.8434C100.239 90.5847 98.3853 89.6795 96.5749 88.1277C93.2126 85.1965 91.0574 81.5325 90.109 77.1358C88.9883 71.8769 88.6004 67.6957 88.9452 64.592C89.0314 64.3334 89.0745 63.4713 89.0745 62.0057C89.3331 55.1088 89.8935 48.6861 90.7556 42.7375C91.1005 40.4098 91.5315 38.2545 92.0488 36.2717C92.7385 33.8578 93.1264 31.7025 93.2127 29.8058C93.2127 28.254 93.4713 26.4436 93.9886 24.3745C95.1093 19.8915 95.3248 14.4602 94.6351 8.08061C94.5489 7.90819 94.4627 7.64955 94.3765 7.30471C94.3765 6.87365 94.3765 6.52881 94.3765 6.27017C94.2041 3.94247 95.2817 2.34757 97.6094 1.48545C98.7302 1.05439 100.066 0.838867 101.618 0.838867Z" fill="currentColor"/>
<path d="M22.3025 57.4316H35.0625C40.1958 57.5783 46.2091 58.0183 53.1025 58.7517C54.8625 59.045 57.4291 59.1916 60.8025 59.1916C61.8291 59.3383 63.4425 59.4116 65.6425 59.4116C67.8425 59.4116 69.5291 59.4116 70.7025 59.4116C72.6091 59.5583 74.2225 59.8517 75.5425 60.2916C78.9158 61.3183 80.4558 63.665 80.1625 67.3316C80.1625 67.9183 80.0158 68.8716 79.7225 70.1916C78.5491 76.0583 79.5025 81.4116 82.5825 86.2516C85.2225 90.505 86.9091 94.5383 87.6425 98.3517C88.2291 101.285 88.0091 103.998 86.9825 106.492C85.0758 111.038 81.7758 113.605 77.0825 114.192C76.3491 114.192 75.0291 114.192 73.1225 114.192C68.2825 114.192 64.5425 114.412 61.9025 114.852C60.1425 115.145 58.1625 115.072 55.9625 114.632C50.9758 113.898 47.7491 111.112 46.2825 106.272C45.4025 103.778 45.1091 101.505 45.4025 99.4517C45.6958 97.2517 46.9425 96.005 49.1425 95.7116C49.7291 95.7116 50.5358 95.7116 51.5625 95.7116C52.7358 95.7116 53.6158 95.6383 54.2025 95.4916C56.2558 95.4916 57.8691 94.8317 59.0425 93.5117C60.2158 92.1916 60.6558 90.505 60.3625 88.4516C59.7758 82.7316 57.1358 78.6983 52.4425 76.3516C48.6291 74.2983 44.6691 74.665 40.5625 77.4516C36.0158 80.6783 32.8625 84.4183 31.1025 88.6716C30.2225 90.8716 29.5625 92.705 29.1225 94.1717C26.6291 104.585 25.4558 112.945 25.6025 119.252C25.7491 123.652 25.5291 127.758 24.9425 131.572C24.7958 132.012 24.7958 134.138 24.9425 137.952C25.2358 141.765 25.6025 146.238 26.0425 151.372C26.4825 156.505 26.9958 160.465 27.5825 163.252C28.1691 165.892 29.1225 168.312 30.4425 170.512C33.3758 175.205 35.5758 178.652 37.0425 180.852C40.1225 185.398 44.0091 188.478 48.7025 190.092C54.4225 191.852 59.2625 190.752 63.2225 186.792C68.2091 181.952 70.6291 176.452 70.4825 170.292C70.4825 168.532 70.4825 165.892 70.4825 162.372C70.6291 160.465 71.0691 158.852 71.8025 157.532C73.1225 155.038 75.0291 154.378 77.5225 155.552C78.1091 155.992 78.9158 156.578 79.9425 157.312C81.2625 158.485 82.4358 160.245 83.4625 162.592C87.2758 170.952 89.2558 175.425 89.4025 176.012C91.8958 182.612 92.7025 189.652 91.8225 197.132C91.3825 200.945 89.5491 204.098 86.3225 206.592C79.7225 211.578 72.9758 213.412 66.0825 212.092C62.5625 211.505 58.9691 211.578 55.3025 212.312C50.1691 213.338 44.9625 213.412 39.6825 212.532C36.8958 212.238 31.3958 211.578 23.1825 210.552C19.9558 210.112 16.8025 208.572 13.7225 205.932C8.00246 200.945 4.33579 194.712 2.72246 187.232C0.815793 178.285 0.155792 171.172 0.742459 165.892C0.889126 165.452 0.962459 163.985 0.962459 161.492C1.40246 149.758 2.35579 138.832 3.82246 128.712C4.40913 124.752 5.14246 121.085 6.02246 117.712C7.19579 113.605 7.85579 109.938 8.00246 106.712C8.00246 104.072 8.44246 100.992 9.32246 97.4716C11.2291 89.845 11.5958 80.605 10.4225 69.7517C10.2758 69.4583 10.1291 69.0183 9.98246 68.4316C9.98246 67.6983 9.98246 67.1116 9.98246 66.6716C9.68913 62.7116 11.5225 59.9983 15.4825 58.5316C17.3891 57.7983 19.6625 57.4316 22.3025 57.4316Z" fill="currentColor"/>
<path d="M379.6 59.1915C389.867 59.1915 396.907 59.0449 400.72 58.7515C403.654 58.6049 405.78 58.5315 407.1 58.5315C414.727 58.3849 422.867 58.3115 431.52 58.3115C435.774 58.3115 439.074 58.6049 441.42 59.1915C447.434 60.9515 450.954 64.7649 451.98 70.6315C452.127 71.6582 452.86 75.1782 454.18 81.1915C454.767 83.6849 454.767 85.6649 454.18 87.1315C453.74 88.1582 453.08 88.8915 452.2 89.3315C451.32 89.6249 450.367 89.4782 449.34 88.8915C448.754 88.5982 447.654 87.6449 446.04 86.0315C445.6 85.5915 444.427 84.5649 442.52 82.9515C440.614 81.1915 439.147 79.8715 438.12 78.9915C432.987 74.5915 427.12 73.2715 420.52 75.0315C413.187 76.7915 407.394 80.2382 403.14 85.3715C399.62 89.6249 397.934 94.0249 398.08 98.5715C398.08 99.0115 398.08 100.112 398.08 101.872C398.08 103.632 398.154 105.025 398.3 106.052C398.3 107.958 398.814 109.792 399.84 111.552C401.747 115.218 404.607 116.318 408.42 114.852C409.447 114.558 410.914 113.605 412.82 111.992C416.78 108.765 420.667 106.345 424.48 104.732C426.827 103.852 428.954 103.412 430.86 103.412C433.5 103.412 435.627 104.365 437.24 106.272C441.787 111.405 444.72 116.832 446.04 122.552C446.334 124.018 446.407 125.778 446.26 127.832C445.967 131.792 443.84 133.332 439.88 132.452C438.56 132.158 437.02 131.645 435.26 130.912C432.18 129.445 428.514 128.785 424.26 128.932C420.007 128.932 415.827 130.252 411.72 132.892C408.2 135.092 405.854 138.098 404.68 141.912C403.8 145.285 403.14 148.145 402.7 150.492C401.967 156.505 401.82 163.398 402.26 171.172C402.994 179.972 408.42 186.792 418.54 191.632C421.18 192.805 424.407 192.732 428.22 191.412C432.034 189.945 434.674 187.965 436.14 185.472C438.047 181.952 438.12 177.992 436.36 173.592C435.774 172.272 434.6 170.512 432.84 168.312C431.52 166.552 430.714 165.525 430.42 165.232C428.807 162.445 429.54 160.392 432.62 159.072C433.207 158.925 433.647 158.852 433.94 158.852C442.007 157.972 446.92 157.605 448.68 157.752C448.974 157.898 449.414 157.972 450 157.972C453.08 158.558 455.28 159.512 456.6 160.832C457.92 162.152 458.8 164.278 459.24 167.212C459.974 173.078 460.12 178.138 459.68 182.392C459.387 183.858 459.607 187.232 460.34 192.512C460.78 196.032 461 198.305 461 199.332C461.147 204.025 458.874 207.545 454.18 209.892C452.42 210.772 450.22 211.285 447.58 211.432C447.58 211.432 445.894 211.578 442.52 211.872C439.147 212.018 436.58 212.092 434.82 212.092C426.167 211.652 419.494 211.652 414.8 212.092C413.92 212.092 412.16 211.872 409.52 211.432C405.267 210.698 400.207 210.405 394.34 210.552C389.06 210.552 384.147 210.552 379.6 210.552C377.84 210.698 376.374 210.625 375.2 210.332C371.974 209.452 370.58 207.325 371.02 203.952C371.167 203.218 371.387 202.412 371.68 201.532C372.267 200.212 372.78 199.185 373.22 198.452C377.034 191.998 379.16 183.858 379.6 174.032C379.894 166.845 379.894 157.678 379.6 146.532C379.454 145.945 379.38 145.505 379.38 145.212C378.794 141.692 378.354 138.172 378.06 134.652C377.914 130.985 377.767 126.512 377.62 121.232C377.62 115.805 377.62 112.212 377.62 110.452C377.034 95.9315 376.814 87.4249 376.96 84.9315C376.96 80.6782 375.714 76.4982 373.22 72.3915C371.754 70.0449 370.874 68.5049 370.58 67.7715C369.7 65.5715 369.7 63.7382 370.58 62.2715C371.46 60.6582 373 59.7049 375.2 59.4115C375.787 59.2649 377.254 59.1915 379.6 59.1915Z" fill="currentColor"/>
<path d="M273.494 99.0353C278.441 99.0353 281.833 98.9647 283.67 98.8233C285.084 98.7527 286.108 98.7173 286.744 98.7173C290.419 98.6467 294.341 98.6113 298.51 98.6113C300.56 98.6113 302.15 98.7527 303.28 99.0353C306.178 99.8833 307.874 101.721 308.368 104.547C308.439 105.042 308.792 106.738 309.428 109.635C309.711 110.837 309.711 111.791 309.428 112.497C309.216 112.992 308.898 113.345 308.474 113.557C308.05 113.699 307.591 113.628 307.096 113.345C306.814 113.204 306.284 112.745 305.506 111.967C305.294 111.755 304.729 111.261 303.81 110.483C302.892 109.635 302.185 108.999 301.69 108.575C299.217 106.455 296.39 105.819 293.21 106.667C289.677 107.515 286.886 109.176 284.836 111.649C283.14 113.699 282.328 115.819 282.398 118.009C282.398 118.221 282.398 118.751 282.398 119.599C282.398 120.447 282.434 121.119 282.504 121.613C282.504 122.532 282.752 123.415 283.246 124.263C284.165 126.03 285.543 126.56 287.38 125.853C287.875 125.712 288.582 125.253 289.5 124.475C291.408 122.921 293.281 121.755 295.118 120.977C296.249 120.553 297.274 120.341 298.192 120.341C299.464 120.341 300.489 120.801 301.266 121.719C303.457 124.193 304.87 126.807 305.506 129.563C305.648 130.27 305.683 131.118 305.612 132.107C305.471 134.015 304.446 134.757 302.538 134.333C301.902 134.192 301.16 133.945 300.312 133.591C298.828 132.885 297.062 132.567 295.012 132.637C292.963 132.637 290.949 133.273 288.97 134.545C287.274 135.605 286.144 137.054 285.578 138.891C285.154 140.517 284.836 141.895 284.624 143.025C284.271 145.923 284.2 149.244 284.412 152.989C284.766 157.229 287.38 160.515 292.256 162.847C293.528 163.413 295.083 163.377 296.92 162.741C298.758 162.035 300.03 161.081 300.736 159.879C301.655 158.183 301.69 156.275 300.842 154.155C300.56 153.519 299.994 152.671 299.146 151.611C298.51 150.763 298.122 150.269 297.98 150.127C297.203 148.785 297.556 147.795 299.04 147.159C299.323 147.089 299.535 147.053 299.676 147.053C303.563 146.629 305.93 146.453 306.778 146.523C306.92 146.594 307.132 146.629 307.414 146.629C308.898 146.912 309.958 147.371 310.594 148.007C311.23 148.643 311.654 149.668 311.866 151.081C312.22 153.908 312.29 156.346 312.078 158.395C311.937 159.102 312.043 160.727 312.396 163.271C312.608 164.967 312.714 166.063 312.714 166.557C312.785 168.819 311.69 170.515 309.428 171.645C308.58 172.069 307.52 172.317 306.248 172.387C306.248 172.387 305.436 172.458 303.81 172.599C302.185 172.67 300.948 172.705 300.1 172.705C295.931 172.493 292.716 172.493 290.454 172.705C290.03 172.705 289.182 172.599 287.91 172.387C285.861 172.034 283.423 171.893 280.596 171.963C278.052 171.963 275.685 171.963 273.494 171.963C272.646 172.034 271.94 171.999 271.374 171.857C269.82 171.433 269.148 170.409 269.36 168.783C269.431 168.43 269.537 168.041 269.678 167.617C269.961 166.981 270.208 166.487 270.42 166.133C272.258 163.024 273.282 159.102 273.494 154.367C273.636 150.905 273.636 146.488 273.494 141.117C273.424 140.835 273.388 140.623 273.388 140.481C273.106 138.785 272.894 137.089 272.752 135.393C272.682 133.627 272.611 131.471 272.54 128.927C272.54 126.313 272.54 124.581 272.54 123.733C272.258 116.737 272.152 112.639 272.222 111.437C272.222 109.388 271.622 107.374 270.42 105.395C269.714 104.265 269.29 103.523 269.148 103.169C268.724 102.109 268.724 101.226 269.148 100.519C269.572 99.742 270.314 99.2827 271.374 99.1413C271.657 99.0707 272.364 99.0353 273.494 99.0353Z" fill="currentColor"/>
<path d="M222.907 99.0358C223.119 99.0358 225.698 99.0358 230.645 99.0358C233.966 98.9652 237.499 99.0712 241.245 99.3539C243.859 99.6365 246.297 99.6365 248.559 99.3539C250.467 99.1418 253.152 99.3185 256.615 99.8838C257.039 99.9545 257.463 100.096 257.887 100.308C258.947 100.803 259.547 101.58 259.689 102.64C259.689 103.205 259.689 103.7 259.689 104.124C259.618 105.325 259.795 107.021 260.219 109.212C260.643 111.332 261.173 114.3 261.809 118.116C262.021 119.317 262.091 120.731 262.021 122.356C261.879 124.547 261.067 126.384 259.583 127.868C258.664 128.716 257.498 129.635 256.085 130.624C254.389 131.755 253.223 132.673 252.587 133.38C251.244 134.793 251.138 136.277 252.269 137.832C252.41 137.973 252.551 138.185 252.693 138.468C252.905 138.68 253.081 138.821 253.223 138.892C255.201 141.507 256.544 144.086 257.251 146.63C257.957 148.891 258.982 151.365 260.325 154.05C260.678 154.757 261.243 155.958 262.021 157.654C262.869 159.279 263.505 160.551 263.929 161.47C264.211 162.035 264.635 162.813 265.201 163.802C265.766 164.721 266.119 165.321 266.261 165.604C266.897 166.735 267.285 167.477 267.427 167.83C268.133 169.809 267.533 171.151 265.625 171.858C263.293 172.706 261.208 172.989 259.371 172.706C258.311 172.565 256.615 172.211 254.283 171.646C252.233 171.151 250.961 169.879 250.467 167.83C249.195 162.671 248.488 159.279 248.347 157.654C248.205 156.17 247.887 154.863 247.393 153.732C246.757 152.177 246.262 150.375 245.909 148.326C245.626 146.63 245.273 145.323 244.849 144.404C244.001 142.425 242.446 141.259 240.185 140.906C238.63 140.623 237.323 140.977 236.263 141.966C232.941 145.075 231.493 148.679 231.917 152.778C232.058 153.626 232.199 154.863 232.341 156.488C232.553 158.113 232.694 159.209 232.765 159.774C233.047 162.742 233.966 165.145 235.521 166.982C235.803 167.406 236.086 167.865 236.369 168.36C236.793 169.137 236.828 169.844 236.475 170.48C236.192 171.116 235.627 171.54 234.779 171.752C234.355 171.893 233.825 171.964 233.189 171.964C233.118 171.964 232.093 171.929 230.115 171.858C227.076 171.787 224.391 171.858 222.059 172.07C221.352 172.141 220.822 172.176 220.469 172.176C219.55 172.035 218.808 171.646 218.243 171.01C217.748 170.374 217.536 169.597 217.607 168.678C217.677 167.901 217.925 167.088 218.349 166.24C218.561 165.745 218.773 165.251 218.985 164.756C219.197 164.191 219.373 163.625 219.515 163.06C219.656 162.424 219.762 161.894 219.833 161.47C219.974 161.046 220.08 160.481 220.151 159.774C220.292 158.997 220.363 158.467 220.363 158.184C220.433 157.831 220.504 157.23 220.575 156.382C220.716 155.534 220.787 154.969 220.787 154.686C220.928 153.838 220.893 152.672 220.681 151.188C220.327 148.715 220.327 146.135 220.681 143.45C220.893 141.259 220.999 138.115 220.999 134.016C220.999 132.179 220.963 129.564 220.893 126.172C220.893 122.78 220.857 120.413 220.787 119.07C220.787 115.678 220.433 112.569 219.727 109.742C219.656 109.247 219.197 107.092 218.349 103.276C218.278 102.852 218.243 102.534 218.243 102.322C218.101 100.767 218.773 99.7425 220.257 99.2479C220.822 99.1065 221.705 99.0358 222.907 99.0358ZM233.507 114.724C232.447 117.904 231.846 121.614 231.705 125.854C231.705 127.903 231.705 128.999 231.705 129.14C231.775 129.917 231.952 130.624 232.235 131.26C233.083 132.956 234.39 133.38 236.157 132.532C236.793 132.249 237.499 131.755 238.277 131.048C239.973 129.423 240.962 128.504 241.245 128.292C242.517 127.303 244.319 125.571 246.651 123.098C247.145 122.603 247.569 122.073 247.923 121.508C249.619 118.823 249.866 115.537 248.665 111.65C247.675 108.47 245.485 107.127 242.093 107.622C239.125 108.117 236.828 109.389 235.203 111.438C234.567 112.215 234.001 113.311 233.507 114.724Z" fill="currentColor"/>
<path d="M169.194 99.2474C170.113 99.1767 171.526 99.0707 173.434 98.9294C175.413 98.7174 176.826 98.6114 177.674 98.6114C178.522 98.5407 179.83 98.5407 181.596 98.6114C185.2 98.47 188.451 98.576 191.348 98.9294C192.126 99 193.327 99.0354 194.952 99.0354C197.496 99.0354 199.51 100.06 200.994 102.109C203.468 105.431 205.022 108.505 205.658 111.331C205.658 111.331 206.612 114.829 208.52 121.825C209.156 124.299 209.651 126.949 210.004 129.775C210.146 130.835 210.464 132.037 210.958 133.379C211.382 134.581 211.7 135.641 211.912 136.559C212.124 137.337 212.478 138.785 212.972 140.905C213.467 142.955 213.856 144.58 214.138 145.781C214.704 147.972 215.057 151.011 215.198 154.897C215.269 157.3 215.516 159.385 215.94 161.151C216.576 163.695 216.718 165.957 216.364 167.935C215.87 170.479 214.456 171.822 212.124 171.963C209.086 172.034 205.694 172.281 201.948 172.705C200.676 172.847 199.369 172.741 198.026 172.387C197.39 172.246 196.896 172.034 196.542 171.751C195.694 171.115 195.447 170.338 195.8 169.419C196.154 168.571 196.542 167.9 196.966 167.405C199.016 164.861 200.712 161.151 202.054 156.275C202.62 154.438 202.726 152.565 202.372 150.657C201.948 148.396 201.524 145.534 201.1 142.071C200.676 137.973 199.086 134.722 196.33 132.319C194.281 130.482 192.126 129.669 189.864 129.881C188.451 129.952 186.896 130.129 185.2 130.411C184.14 130.553 183.08 131.047 182.02 131.895C179.335 133.874 177.038 136.241 175.13 138.997C174.07 140.481 173.47 142.248 173.328 144.297C173.187 147.477 173.116 149.774 173.116 151.187C173.258 155.781 174.777 159.561 177.674 162.529C178.169 163.024 178.84 163.695 179.688 164.543C180.607 165.391 181.172 165.921 181.384 166.133C182.515 167.264 183.186 167.935 183.398 168.147C184.105 169.066 184.282 169.949 183.928 170.797C183.646 171.645 182.939 172.14 181.808 172.281C178.063 172.776 175.06 172.917 172.798 172.705C171.597 172.564 170.36 172.458 169.088 172.387C167.958 172.317 167.004 172.14 166.226 171.857C164.248 171.151 162.94 169.808 162.304 167.829C161.88 166.487 161.774 165.073 161.986 163.589C162.128 162.812 162.304 161.54 162.516 159.773C162.728 157.936 162.94 156.346 163.152 155.003C163.364 153.661 163.647 152.389 164 151.187C164 151.117 164.071 150.799 164.212 150.233C164.354 149.668 164.495 149.244 164.636 148.961C165.484 146.205 166.156 143.202 166.65 139.951C166.721 139.245 166.827 138.609 166.968 138.043C168.523 131.966 169.512 128.185 169.936 126.701C170.643 124.228 171.067 122.143 171.208 120.447C171.35 118.539 171.703 116.773 172.268 115.147C172.763 113.663 172.94 112.109 172.798 110.483C172.657 109.211 172.233 108.116 171.526 107.197C170.749 106.137 169.795 105.643 168.664 105.713C167.604 105.784 166.756 106.385 166.12 107.515C165.979 107.727 165.802 108.045 165.59 108.469C165.449 108.893 165.378 109.176 165.378 109.317C165.096 109.953 164.884 110.377 164.742 110.589C164.106 111.437 163.329 111.579 162.41 111.013C160.926 110.095 160.043 108.858 159.76 107.303C159.478 105.749 159.796 104.406 160.714 103.275C161.562 102.215 162.516 101.403 163.576 100.837C165.484 99.848 167.357 99.318 169.194 99.2474ZM192.832 119.917C194.67 119.564 195.588 118.398 195.588 116.419C195.588 115.501 195.376 114.476 194.952 113.345C194.528 112.144 194.034 111.19 193.468 110.483C193.256 110.201 192.974 109.918 192.62 109.635C190.924 108.081 189.052 107.833 187.002 108.893C186.084 109.388 184.706 110.554 182.868 112.391C181.102 114.229 179.865 116.914 179.158 120.447C179.088 120.659 179.088 120.942 179.158 121.295C179.229 122.567 179.9 123.203 181.172 123.203C181.808 123.274 182.409 123.168 182.974 122.885C183.752 122.461 184.529 122.073 185.306 121.719C186.79 120.871 188.38 120.412 190.076 120.341C191.066 120.271 191.984 120.129 192.832 119.917Z" fill="currentColor"/>
<path d="M138.443 130.411C139.644 130.411 141.799 130.411 144.909 130.411C146.322 130.553 148.195 130.517 150.527 130.305C150.951 130.305 151.41 130.305 151.905 130.305C153.177 130.376 154.096 130.694 154.661 131.259C155.226 131.825 155.544 132.743 155.615 134.015C155.685 135.499 155.58 136.807 155.297 137.937C154.308 141.683 153.919 145.463 154.131 149.279C154.484 156.063 155.65 161.399 157.629 165.285C157.982 165.851 158.229 166.416 158.371 166.981C159.148 169.455 158.371 171.221 156.039 172.281C155.191 172.635 154.272 172.847 153.283 172.917C150.668 172.917 148.371 172.847 146.393 172.705C142.294 172.281 138.301 172.281 134.415 172.705C132.507 172.917 130.775 172.882 129.221 172.599C128.161 172.387 126.677 172.175 124.769 171.963C123.214 171.751 121.73 171.221 120.317 170.373C120.175 170.232 120.069 170.126 119.999 170.055C117.667 168.501 116.147 167.229 115.441 166.239C114.734 165.25 114.027 163.519 113.321 161.045C112.755 158.925 112.473 156.77 112.473 154.579C112.473 153.307 112.402 151.788 112.261 150.021C112.19 148.961 112.331 147.407 112.685 145.357C112.755 144.721 113.391 140.199 114.593 131.789C115.37 126.56 116.077 123.097 116.713 121.401C116.995 120.765 117.137 119.917 117.137 118.857C117.207 117.727 117.49 115.465 117.985 112.073C118.338 109.6 118.232 107.268 117.667 105.077C117.384 104.088 117.243 103.24 117.243 102.533C117.172 100.413 118.197 99.2827 120.317 99.1413C120.458 99.0707 120.811 99.0707 121.377 99.1413C122.013 99.1413 122.437 99.1413 122.649 99.1413C125.829 99.0707 127.631 99.0353 128.055 99.0353C129.751 98.8233 132.754 98.7173 137.065 98.7173C140.457 98.7173 142.577 98.682 143.425 98.6113C145.757 98.6113 147.629 98.788 149.043 99.1413C151.233 99.7773 152.293 101.155 152.223 103.275C152.223 105.89 152.788 108.787 153.919 111.967C154.484 113.593 154.696 115.218 154.555 116.843C154.413 119.741 152.965 121.578 150.209 122.355C147.806 123.133 145.156 123.415 142.259 123.203C141.34 123.203 140.598 122.991 140.033 122.567C139.114 121.861 138.937 121.013 139.503 120.023C139.503 119.953 139.856 119.458 140.563 118.539C141.481 117.338 141.976 116.702 142.047 116.631C142.965 115.077 143.036 113.416 142.259 111.649C141.623 110.236 140.775 109.105 139.715 108.257C138.089 106.773 136.288 106.385 134.309 107.091C131.694 107.939 129.821 109.529 128.691 111.861C128.62 112.073 128.267 112.957 127.631 114.511C126.429 117.762 125.829 119.387 125.829 119.387C124.345 122.85 123.779 126.631 124.133 130.729C124.274 132.849 124.345 134.263 124.345 134.969C124.274 136.312 124.415 139.386 124.769 144.191C124.84 144.827 124.981 145.499 125.193 146.205C126.394 150.233 127.419 153.307 128.267 155.427C128.903 157.053 129.539 158.325 130.175 159.243C132.153 162.141 134.592 163.201 137.489 162.423C139.962 161.717 141.799 160.339 143.001 158.289C143.495 157.441 143.92 156.417 144.273 155.215C144.909 153.519 145.333 151.435 145.545 148.961C145.757 146.559 145.298 144.121 144.167 141.647C143.813 140.729 143.354 140.022 142.789 139.527C142.011 138.679 141.093 138.255 140.033 138.255C139.043 138.185 138.125 138.538 137.277 139.315C136.994 139.527 136.605 139.881 136.111 140.375C135.616 140.87 135.298 141.223 135.157 141.435C134.238 142.283 133.39 142.566 132.613 142.283C131.623 141.859 131.129 141.011 131.129 139.739C131.2 137.195 131.729 135.075 132.719 133.379C133.708 131.471 135.404 130.482 137.807 130.411C138.089 130.411 138.301 130.411 138.443 130.411Z" fill="currentColor"/>
<path d="M106.609 172.281C104.772 172.352 101.627 172.246 97.1748 171.963C96.3268 171.893 95.7262 171.822 95.3729 171.751C93.6769 171.398 93.0055 170.338 93.3589 168.571C93.4295 168.147 93.5355 167.794 93.6769 167.511C94.6662 165.533 95.3375 162.529 95.6909 158.501C95.7615 157.936 95.7615 157.406 95.6909 156.911C95.6909 155.639 95.9735 151.223 96.5388 143.661C96.7508 140.269 96.7155 137.054 96.4328 134.015C95.7262 127.09 95.5849 121.613 96.0089 117.585C96.2915 115.253 95.7969 112.321 94.5249 108.787C94.3129 108.222 93.8182 106.985 93.0409 105.077C92.5462 104.017 92.2989 103.169 92.2989 102.533C92.2282 100.767 93.0055 99.6713 94.6309 99.2473C95.3375 99.106 96.0442 99.0353 96.7509 99.0353C99.5775 99.106 102.086 99 104.277 98.7173C104.63 98.6467 105.761 98.6113 107.669 98.6113C108.305 98.682 108.906 98.8587 109.471 99.1413C110.814 99.848 111.379 100.873 111.167 102.215C111.026 103.063 110.778 104.053 110.425 105.183C109.506 108.363 108.976 110.519 108.835 111.649C108.764 112.215 108.623 113.31 108.411 114.935C108.199 116.49 108.058 117.585 107.987 118.221C107.916 118.787 107.775 119.882 107.563 121.507C107.422 123.062 107.386 124.157 107.457 124.793C107.528 125.359 107.563 126.454 107.563 128.079C107.704 129.563 107.634 131.118 107.351 132.743C107.068 134.298 107.068 135.853 107.351 137.407C107.775 139.527 107.846 141.718 107.563 143.979C107.351 146.594 107.386 151.152 107.669 157.653C107.81 161.328 108.588 164.437 110.001 166.981C110.213 167.405 110.39 167.935 110.531 168.571C110.884 170.055 110.354 171.151 108.941 171.857C108.376 172.14 107.598 172.281 106.609 172.281Z" fill="currentColor"/>
<path d="M330.403 172.282C328.565 172.351 325.421 172.247 320.969 171.969C320.121 171.9 319.52 171.83 319.167 171.761C317.471 171.413 316.799 170.37 317.153 168.632C317.223 168.215 317.329 167.868 317.471 167.59C318.46 165.643 319.131 162.689 319.485 158.726C319.555 158.17 319.555 157.649 319.485 157.162C319.485 155.911 319.767 151.566 320.333 144.128C320.545 140.791 320.509 137.628 320.227 134.639C319.52 127.826 319.379 122.439 319.803 118.477C320.085 116.183 319.591 113.298 318.319 109.822C318.107 109.266 317.612 108.049 316.835 106.172C316.34 105.129 316.093 104.295 316.093 103.67C316.022 101.932 316.799 100.854 318.425 100.437C319.131 100.298 319.838 100.229 320.545 100.229C323.371 100.298 325.88 100.194 328.071 99.9158C328.424 99.8463 329.555 99.8115 331.463 99.8115C332.099 99.881 332.699 100.055 333.265 100.333C334.607 101.028 335.173 102.036 334.961 103.357C334.819 104.191 334.572 105.164 334.219 106.277C333.3 109.405 332.77 111.525 332.629 112.637C332.558 113.193 332.417 114.271 332.205 115.87C331.993 117.399 331.851 118.477 331.781 119.102C331.71 119.658 331.569 120.736 331.357 122.335C331.215 123.864 331.18 124.942 331.251 125.567C331.321 126.123 331.357 127.201 331.357 128.8C331.498 130.26 331.427 131.789 331.145 133.388C330.862 134.917 330.862 136.446 331.145 137.976C331.569 140.061 331.639 142.216 331.357 144.441C331.145 147.013 331.18 151.497 331.463 157.892C331.604 161.507 332.381 164.566 333.795 167.068C334.007 167.485 334.183 168.007 334.325 168.632C334.678 170.092 334.148 171.17 332.735 171.865C332.169 172.143 331.392 172.282 330.403 172.282Z" fill="currentColor"/>
<path d="M358.213 172.282C356.376 172.351 353.231 172.247 348.779 171.969C347.931 171.9 347.331 171.83 346.977 171.761C345.281 171.413 344.61 170.37 344.963 168.632C345.034 168.215 345.14 167.868 345.281 167.59C346.271 165.643 346.942 162.689 347.295 158.726C347.366 158.17 347.366 157.649 347.295 157.162C347.295 155.911 347.578 151.566 348.143 144.128C348.355 140.791 348.32 137.628 348.037 134.639C347.331 127.826 347.189 122.439 347.613 118.477C347.896 116.183 347.401 113.298 346.129 109.822C345.917 109.266 345.423 108.049 344.645 106.172C344.151 105.129 343.903 104.295 343.903 103.67C343.833 101.932 344.61 100.854 346.235 100.437C346.942 100.298 347.649 100.229 348.355 100.229C351.182 100.298 353.691 100.194 355.881 99.9158C356.235 99.8463 357.365 99.8115 359.273 99.8115C359.909 99.881 360.51 100.055 361.075 100.333C362.418 101.028 362.983 102.036 362.771 103.357C362.63 104.191 362.383 105.164 362.029 106.277C361.111 109.405 360.581 111.525 360.439 112.637C360.369 113.193 360.227 114.271 360.015 115.87C359.803 117.399 359.662 118.477 359.591 119.102C359.521 119.658 359.379 120.736 359.167 122.335C359.026 123.864 358.991 124.942 359.061 125.567C359.132 126.123 359.167 127.201 359.167 128.8C359.309 130.26 359.238 131.789 358.955 133.388C358.673 134.917 358.673 136.446 358.955 137.976C359.379 140.061 359.45 142.216 359.167 144.441C358.955 147.013 358.991 151.497 359.273 157.892C359.415 161.507 360.192 164.566 361.605 167.068C361.817 167.485 361.994 168.007 362.135 168.632C362.489 170.092 361.959 171.17 360.545 171.865C359.98 172.143 359.203 172.282 358.213 172.282Z" fill="currentColor"/>
<path d="M366.549 133.6C366.427 133.6 365.548 133.668 363.909 133.803C362.635 133.938 361.027 133.769 359.086 133.296C357.144 132.89 355.415 132.619 353.898 132.484C353.473 132.484 352.988 132.45 352.442 132.383C351.957 132.315 351.411 132.213 350.804 132.078C350.258 132.01 349.803 131.977 349.439 131.977C348.346 131.774 347.618 131.672 347.254 131.672C345.677 131.672 344.13 131.503 342.613 131.165C341.521 130.962 339.973 130.827 337.971 130.759C335.483 130.691 333.208 131.3 331.145 132.585C329.932 133.33 328.627 133.668 327.232 133.6C325.958 133.532 324.592 132.991 323.136 131.977C322.954 131.841 322.681 131.638 322.317 131.368C322.014 131.097 321.771 130.928 321.589 130.861C320.74 130.252 319.92 130.286 319.132 130.962C319.01 131.097 318.798 131.3 318.495 131.571C318.191 131.909 317.949 132.146 317.767 132.281C315.886 133.904 313.762 134.378 311.396 133.702C309.575 133.16 308.423 131.841 307.937 129.744C307.391 126.903 307.998 124.637 309.757 122.946C310.971 121.729 312.366 121.289 313.944 121.627C315.279 121.965 316.401 122.574 317.311 123.454C317.433 123.521 317.645 123.724 317.949 124.062C318.252 124.401 318.495 124.637 318.677 124.773C319.465 125.449 320.254 125.415 321.043 124.671C321.286 124.468 321.68 124.029 322.226 123.352C323.015 122.473 324.016 121.965 325.229 121.83C327.838 121.492 330.114 121.729 332.055 122.54C332.844 122.811 333.815 123.115 334.968 123.454C336.849 123.995 338.73 124.096 340.61 123.758C342.795 123.487 345.495 123.183 348.711 122.845C349.803 122.709 351.016 122.676 352.351 122.743C355.142 122.879 357.751 122.642 360.178 122.033C362.423 121.492 364.425 121.255 366.185 121.323C366.974 121.39 367.58 121.492 368.005 121.627C369.461 122.236 370.311 123.42 370.553 125.178C370.796 127.14 370.584 129 369.916 130.759C369.309 132.45 368.187 133.397 366.549 133.6Z" fill="currentColor"/>
<path d="M114.377 199.288C110.179 199.096 107.213 198.025 105.479 196.075C103.966 194.576 103.288 192.856 103.448 190.915C103.576 189.176 104.461 187.721 106.103 186.548C108.03 185.424 110.177 184.751 112.544 184.53C116.364 184.348 119.22 184.261 121.114 184.27C124.46 184.318 129.257 184.405 135.507 184.529C141.756 184.654 146.191 184.731 148.81 184.759C154.934 184.759 160.031 184.792 164.103 184.859C167.48 184.706 171.757 184.859 176.933 185.32C177.217 185.368 177.927 185.488 179.063 185.68C180.483 185.92 181.556 186.05 182.282 186.069C185.06 186.021 188.989 186.064 194.071 186.198C199.437 186.381 204.234 186.467 208.464 186.457C212.819 186.572 216.907 186.539 220.726 186.356C236.445 185.596 245.694 185.192 248.471 185.144C261.192 184.913 271.702 185.292 280.002 186.281C286.314 186.934 292.296 186.91 297.946 186.208C303.628 185.305 309.468 185.257 315.464 186.063C322.47 186.937 329.493 186.779 336.533 185.587C340.132 184.953 343.162 185.154 345.623 186.192C346.317 186.413 347.295 186.682 348.557 186.999C349.978 187.239 350.972 187.407 351.54 187.503C353.906 188.214 355.767 189.357 357.123 190.933C358.605 192.634 359.219 194.291 358.965 195.905C358.806 197.846 357.542 198.927 355.175 199.148C354.733 199.177 354.512 199.191 354.512 199.191C351.892 199.163 347.568 199.312 341.539 199.639C335.668 199.889 331.138 199.951 327.951 199.827C322.743 199.567 319.397 199.52 317.913 199.683C313.336 200.048 306.897 200.202 298.596 200.145C290.421 200.213 285.166 200.256 282.83 200.275C280.779 200.343 276.786 200.237 270.852 199.959C258.322 198.979 247.859 198.764 239.463 199.312C234.602 199.629 226.475 199.394 215.081 198.607C202.677 197.752 188.174 197.733 171.571 198.551C166.868 198.791 162.638 198.801 158.882 198.58C150.392 197.87 141.917 197.99 133.458 198.942C127.807 199.643 121.447 199.759 114.377 199.288Z" fill="currentColor"/>
<path d="M234.209 217.613C234.275 217.547 234.837 217.481 235.896 217.415C237.153 217.68 237.914 217.845 238.179 217.911C239.436 218.11 240.065 218.242 240.065 218.308C241.455 218.374 242.348 217.746 242.745 216.422C242.745 216.224 242.811 215.926 242.943 215.529C243.01 215.132 243.076 214.834 243.142 214.636C243.34 214.106 243.704 213.742 244.234 213.544C244.763 213.345 245.292 213.411 245.822 213.742C246.484 214.139 247.046 214.834 247.509 215.827C247.575 215.959 247.675 216.158 247.807 216.422C247.939 216.753 248.072 217.051 248.204 217.316C248.27 217.58 248.336 217.812 248.403 218.01C249.064 219.334 250.09 219.863 251.48 219.599C251.612 219.599 251.877 219.565 252.274 219.499C252.604 219.433 252.869 219.4 253.068 219.4C253.729 219.334 254.259 219.499 254.656 219.896C254.987 220.293 255.086 220.856 254.954 221.584C254.821 222.312 254.457 223.106 253.862 223.966C253.796 224.032 253.564 224.297 253.167 224.76C252.77 225.223 252.505 225.587 252.373 225.852C251.38 227.241 251.513 228.532 252.77 229.723C252.836 229.855 253.001 230.021 253.266 230.219C253.531 230.484 253.696 230.616 253.762 230.616C254.358 231.145 254.689 231.443 254.755 231.509C255.417 232.237 255.648 232.932 255.45 233.594C255.185 234.322 254.59 234.785 253.663 234.983C253.001 235.182 252.108 235.182 250.983 234.983C249.858 234.785 249.064 234.686 248.601 234.686C247.873 234.686 247.245 234.95 246.715 235.48C246.12 236.009 245.756 236.671 245.623 237.465C245.623 237.597 245.623 237.862 245.623 238.259C245.557 238.656 245.491 238.954 245.425 239.152C245.292 239.748 244.995 240.112 244.532 240.244C244.068 240.376 243.605 240.277 243.142 239.946C242.546 239.549 242.05 238.921 241.653 238.06C241.124 236.935 240.66 236.042 240.263 235.38C239.668 234.322 238.775 233.958 237.583 234.289C237.385 234.355 236.789 234.619 235.797 235.083C235.665 235.149 235.499 235.248 235.301 235.38C235.036 235.579 234.804 235.678 234.606 235.678C233.878 236.009 233.415 235.777 233.216 234.983C232.951 234.123 232.985 233.197 233.315 232.204C233.58 231.41 234.043 230.583 234.705 229.723C235.433 228.796 235.896 228.135 236.095 227.738C237.021 226.149 236.955 224.628 235.896 223.172C235.698 222.973 235.466 222.709 235.201 222.378C234.87 222.047 234.639 221.815 234.507 221.683C233.845 220.823 233.415 220.227 233.216 219.896C232.885 219.367 232.819 218.871 233.018 218.407C233.216 218.01 233.613 217.746 234.209 217.613Z" fill="currentColor"/>
<path d="M198.728 217.613C198.794 217.547 199.356 217.481 200.415 217.415C201.672 217.68 202.433 217.845 202.698 217.911C203.955 218.11 204.584 218.242 204.584 218.308C205.974 218.374 206.867 217.746 207.264 216.422C207.264 216.224 207.33 215.926 207.462 215.529C207.529 215.132 207.595 214.834 207.661 214.636C207.859 214.106 208.223 213.742 208.753 213.544C209.282 213.345 209.812 213.411 210.341 213.742C211.003 214.139 211.565 214.834 212.028 215.827C212.094 215.959 212.194 216.158 212.326 216.422C212.458 216.753 212.591 217.051 212.723 217.316C212.789 217.58 212.855 217.812 212.922 218.01C213.583 219.334 214.609 219.863 215.999 219.599C216.131 219.599 216.396 219.565 216.793 219.499C217.123 219.433 217.388 219.4 217.587 219.4C218.248 219.334 218.778 219.499 219.175 219.896C219.506 220.293 219.605 220.856 219.473 221.584C219.34 222.312 218.976 223.106 218.381 223.966C218.315 224.032 218.083 224.297 217.686 224.76C217.289 225.223 217.024 225.587 216.892 225.852C215.899 227.241 216.032 228.532 217.289 229.723C217.355 229.855 217.521 230.021 217.785 230.219C218.05 230.484 218.215 230.616 218.282 230.616C218.877 231.145 219.208 231.443 219.274 231.509C219.936 232.237 220.167 232.932 219.969 233.594C219.704 234.322 219.109 234.785 218.182 234.983C217.521 235.182 216.627 235.182 215.502 234.983C214.377 234.785 213.583 234.686 213.12 234.686C212.392 234.686 211.764 234.95 211.234 235.48C210.639 236.009 210.275 236.671 210.142 237.465C210.142 237.597 210.142 237.862 210.142 238.259C210.076 238.656 210.01 238.954 209.944 239.152C209.812 239.748 209.514 240.112 209.051 240.244C208.587 240.376 208.124 240.277 207.661 239.946C207.065 239.549 206.569 238.921 206.172 238.06C205.643 236.935 205.18 236.042 204.782 235.38C204.187 234.322 203.294 233.958 202.103 234.289C201.904 234.355 201.308 234.619 200.316 235.083C200.184 235.149 200.018 235.248 199.82 235.38C199.555 235.579 199.323 235.678 199.125 235.678C198.397 236.009 197.934 235.777 197.735 234.983C197.471 234.123 197.504 233.197 197.834 232.204C198.099 231.41 198.562 230.583 199.224 229.723C199.952 228.796 200.415 228.135 200.614 227.738C201.54 226.149 201.474 224.628 200.415 223.172C200.217 222.973 199.985 222.709 199.72 222.378C199.389 222.047 199.158 221.815 199.026 221.683C198.364 220.823 197.934 220.227 197.735 219.896C197.404 219.367 197.338 218.871 197.537 218.407C197.735 218.01 198.132 217.746 198.728 217.613Z" fill="currentColor"/>
<path d="M269.69 217.613C269.756 217.547 270.319 217.481 271.378 217.415C272.635 217.68 273.396 217.845 273.66 217.911C274.918 218.11 275.546 218.242 275.546 218.308C276.936 218.374 277.829 217.746 278.226 216.422C278.226 216.224 278.292 215.926 278.425 215.529C278.491 215.132 278.557 214.834 278.623 214.636C278.822 214.106 279.186 213.742 279.715 213.544C280.245 213.345 280.774 213.411 281.303 213.742C281.965 214.139 282.527 214.834 282.991 215.827C283.057 215.959 283.156 216.158 283.288 216.422C283.421 216.753 283.553 217.051 283.685 217.316C283.752 217.58 283.818 217.812 283.884 218.01C284.546 219.334 285.571 219.863 286.961 219.599C287.093 219.599 287.358 219.565 287.755 219.499C288.086 219.433 288.351 219.4 288.549 219.4C289.211 219.334 289.74 219.499 290.137 219.896C290.468 220.293 290.567 220.856 290.435 221.584C290.303 222.312 289.939 223.106 289.343 223.966C289.277 224.032 289.045 224.297 288.648 224.76C288.251 225.223 287.987 225.587 287.854 225.852C286.862 227.241 286.994 228.532 288.251 229.723C288.318 229.855 288.483 230.021 288.748 230.219C289.012 230.484 289.178 230.616 289.244 230.616C289.839 231.145 290.17 231.443 290.236 231.509C290.898 232.237 291.13 232.932 290.931 233.594C290.667 234.322 290.071 234.785 289.145 234.983C288.483 235.182 287.59 235.182 286.465 234.983C285.34 234.785 284.546 234.686 284.083 234.686C283.355 234.686 282.726 234.95 282.197 235.48C281.601 236.009 281.237 236.671 281.105 237.465C281.105 237.597 281.105 237.862 281.105 238.259C281.039 238.656 280.972 238.954 280.906 239.152C280.774 239.748 280.476 240.112 280.013 240.244C279.55 240.376 279.087 240.277 278.623 239.946C278.028 239.549 277.532 238.921 277.134 238.06C276.605 236.935 276.142 236.042 275.745 235.38C275.149 234.322 274.256 233.958 273.065 234.289C272.866 234.355 272.271 234.619 271.278 235.083C271.146 235.149 270.981 235.248 270.782 235.38C270.517 235.579 270.286 235.678 270.087 235.678C269.359 236.009 268.896 235.777 268.698 234.983C268.433 234.123 268.466 233.197 268.797 232.204C269.062 231.41 269.525 230.583 270.186 229.723C270.914 228.796 271.378 228.135 271.576 227.738C272.502 226.149 272.436 224.628 271.378 223.172C271.179 222.973 270.947 222.709 270.683 222.378C270.352 222.047 270.12 221.815 269.988 221.683C269.326 220.823 268.896 220.227 268.698 219.896C268.367 219.367 268.301 218.871 268.499 218.407C268.698 218.01 269.095 217.746 269.69 217.613Z" fill="currentColor"/>
</svg>
